<svg xmlns="http://www.w3.org/2000/svg" width="16" height="16">
	<path d="M1 1v5.66l8.48 8.48 5.66-5.66L6.66 1zm.99.99v4.24l7.5 7.5 4.24-4.25L6.23 2z" fill-rule="evenodd"/>
	<path d="M3.48 3.48a1.75 1.75 0 102.47 2.47 1.75 1.75 0 00-2.48-2.48zm.7.7a.75.75 0 111.06 1.06.75.75 0 01-1.06-1.06z"/>
	<path d="M12.14 9.66l-2.48 2.48L6.13 8.6 8.6 6.13z"/>
	<path d="M12.66 6.34l-.74-2.26-2.26-.74 2.26-.74.74-2.26.74 2.26 2.26.74-2.26.74z"/>
	<path d="M2.42 12.83l-.65-1.65-1.65-.65 1.65-.66.65-1.65.66 1.65 1.65.66-1.65.65z"/>
	<path d="M4.17 15.93l-.65-1.65-1.66-.65 1.66-.66.65-1.65.65 1.65 1.66.66-1.66.65z"/>
</svg>
